<svg version="1.1" id="Layer_1" xmlns="http://www.w3.org/2000/svg" x="0" y="0" viewBox="0 0 61.3 61.3" xml:space="preserve"><style>.st0{fill:#4d4d4d;stroke:#fafffc;stroke-width:2;stroke-miterlimit:10}</style><g id="Layer_2_1_"><g id="Backgrounds"><circle class="st0" cx="30.4" cy="30.9" r="5.5"/><path class="st0" d="M37.2 17.4H23.5c-1.8-.1-3.5.6-4.9 1.8-1.2 1.3-1.8 3.1-1.8 4.9v13.7c-.1 1.9.6 3.7 1.9 5 1.3 1.2 3.1 1.8 4.9 1.8h13.6c1.8.1 3.5-.5 4.9-1.8 1.3-1.3 2-3.1 1.9-4.9V24.2c.1-1.8-.6-3.5-1.7-4.9-1.4-1.3-3.2-2-5.1-1.9zm-6.8 22c-4.7 0-8.5-3.8-8.5-8.5s3.8-8.5 8.5-8.5 8.5 3.8 8.5 8.5-3.8 8.5-8.5 8.5zM39.2 24c-1.1 0-2-.9-2-2s.9-2 2-2 2 .9 2 2-.8 2-2 2z"/><path class="st0" d="M30.6 0C13.7 0 0 13.7 0 30.6s13.7 30.6 30.6 30.6 30.6-13.7 30.6-30.6C61.3 13.7 47.6 0 30.6 0c.1 0 .1 0 0 0zM47 37.9c.1 2.6-.9 5.2-2.8 7.1-1.9 1.8-4.4 2.7-7 2.6H23.7c-2.6.1-5.1-.8-7-2.6-1.9-1.9-2.8-4.5-2.7-7.1V24.2c0-5.7 3.9-9.7 9.7-9.7h13.7c2.6-.1 5.1.9 7 2.7 1.8 1.9 2.7 4.4 2.6 7v13.7z"/></g></g></svg>