<svg xmlns="http://www.w3.org/2000/svg" viewBox="0 0 318.1 71.67"><defs><style>.cls-1{fill:#fafffc}</style></defs><g id="Layer_2" data-name="Layer 2"><g id="Layer_1-2" data-name="Layer 1"><path class="cls-1" d="M28 57.86l-5.83-16.38h-3.06v16.38H0V1.14h21.86c19.35 0 25.06 8.22 25.06 19.74 0 6.11-2.27 12.3-8 16.29L49.2 57.86zm-9-29.22h3.13c4.7 0 5.64-3 5.64-6 0-2.89-.94-5.79-5.64-5.79H19zm32.55 6.81c0-13.79 9.64-23.27 23.66-23.27 15.74 0 24.6 10.11 22.72 26.87H69.72c0 4.47 2.51 7.37 6.35 7.37 2.82 0 4.78-1.33 5.33-3.76l16.53 1.41c-2.43 9.56-10.19 14.65-22.41 14.65-14.52 0-23.97-9.17-23.97-23.27zm30.08-6c-.16-3.68-2.66-6-5.87-6s-5.72 2.35-5.88 6z"/><ellipse cx="134.35" cy="30.39" rx="27.04" ry="26.06" stroke-width="5" stroke-miterlimit="10" fill="none" stroke="#fafffc"/><path d="M105.52 30.33h30.55m-19.53-18.74l36.12 36.12m-37.95 3.43l38.2-38.2m-17.34-7.13v48.78" fill="none" stroke="#fafffc" stroke-miterlimit="10" stroke-width="2"/><path fill="#4d4d4d" stroke="#4d4d4d" stroke-miterlimit="10" d="M144.86 31.06l21.66-13.3-.35 27.16-21.31-13.86z"/><path class="cls-1" d="M183.2 57.23l-19.45-43.09h6.61l16 36.63 16-36.63H209l-25.87 57.53h-6.46zm27.67-21.36c0-13.14 8.81-22.57 21.2-22.57 10.11 0 16.65 4.71 19.84 13.83l-5.25 1.3c-2.58-6.54-7.37-9.81-14.44-9.81-9 0-15.43 7.07-15.43 17.25s6.39 17.26 15.43 17.26a14.61 14.61 0 0014.37-9.81l5.24 1.29c-2.89 8.74-10 13.84-19.76 13.84-12.39 0-21.2-9.45-21.2-22.58zM260.72 0h6v57.61h-6zm14.82 35.87c0-13.37 8.82-22.57 21.66-22.57 13.45 0 21.74 9.58 20.83 23.71h-36.56c.23 10.11 6.38 16.19 16.19 16.19 6.91 0 11.4-2.58 14.13-7.52l5.48 1.21c-3.73 7.53-10.19 11.56-19.69 11.56-13.37 0-22.04-8.97-22.04-22.58zM312.33 32c-.54-8.36-6.16-13.68-15.05-13.68-8.51 0-14.52 5.09-15.58 13.68z"/></g></g></svg>