<svg data-name="Layer 1" xmlns="http://www.w3.org/2000/svg" viewBox="0 0 63.28 63.28"><path d="M31.64 1.5a30.14 30.14 0 1030.14 30.14A30.13 30.13 0 0031.64 1.5zm15.18 24.06v1c0 10-7.64 21.61-21.61 21.61a21.45 21.45 0 01-11.64-3.42 15.7 15.7 0 001.81.11 15.21 15.21 0 009.43-3.25 7.6 7.6 0 01-7.09-5.28 7.62 7.62 0 001.43.14 7.48 7.48 0 002-.27 7.59 7.59 0 01-6.09-7.44v-.1a7.45 7.45 0 003.44 1 7.6 7.6 0 01-3.38-6.32 7.52 7.52 0 011-3.82 21.49 21.49 0 0015.65 7.98 7.6 7.6 0 0113-6.92 15.2 15.2 0 004.82-1.85 7.61 7.61 0 01-3.34 4.2 15.43 15.43 0 004.36-1.19 15.16 15.16 0 01-3.79 3.82z" fill="#4d4d4d" stroke="#fafffc" stroke-miterlimit="10" stroke-width="3" data-name="Layer 2"/></svg>